<?xml version="1.0" standalone="no"?>
<!DOCTYPE svg PUBLIC "-//W3C//DTD SVG 1.1//EN" "http://www.w3.org/Graphics/SVG/1.1/DTD/svg11.dtd" >
<svg xmlns="http://www.w3.org/2000/svg">
<metadata>
Created by FontForge 20120731 at Wed May 18 17:15:51 2016
 By admin
</metadata>
<defs>
<font id="iconfont-tcl" horiz-adv-x="1024" >
  <font-face 
    font-family="iconfont-tcl"
    font-weight="500"
    font-stretch="normal"
    units-per-em="1024"
    panose-1="2 0 6 3 0 0 0 0 0 0"
    ascent="896"
    descent="-128"
    x-height="792"
    bbox="1.61983 -161 1021 896"
    underline-thickness="50"
    underline-position="-100"
    unicode-range="U+0078-E655"
  />
<missing-glyph horiz-adv-x="374" 
d="M34 0v682h272v-682h-272zM68 34h204v614h-204v-614z" />
    <glyph glyph-name=".notdef" horiz-adv-x="374" 
d="M34 0v682h272v-682h-272zM68 34h204v614h-204v-614z" />
    <glyph glyph-name=".null" horiz-adv-x="0" 
 />
    <glyph glyph-name="nonmarkingreturn" horiz-adv-x="341" 
 />
    <glyph glyph-name="x" unicode="x" horiz-adv-x="1001" 
d="M281 543q-27 -1 -53 -1h-83q-18 0 -36.5 -6t-32.5 -18.5t-23 -32t-9 -45.5v-76h912v41q0 16 -0.5 30t-0.5 18q0 13 -5 29t-17 29.5t-31.5 22.5t-49.5 9h-133v-97h-438v97zM955 310v-52q0 -23 0.5 -52t0.5 -58t-10.5 -47.5t-26 -30t-33 -16t-31.5 -4.5q-14 -1 -29.5 -0.5
t-29.5 0.5h-32l-45 128h-439l-44 -128h-29h-34q-20 0 -45 1q-25 0 -41 9.5t-25.5 23t-13.5 29.5t-4 30v167h911zM163 247q-12 0 -21 -8.5t-9 -21.5t9 -21.5t21 -8.5q13 0 22 8.5t9 21.5t-9 21.5t-22 8.5zM316 123q-8 -26 -14 -48q-5 -19 -10.5 -37t-7.5 -25t-3 -15t1 -14.5
t9.5 -10.5t21.5 -4h37h67h81h80h64h36q23 0 34 12t2 38q-5 13 -9.5 30.5t-9.5 34.5q-5 19 -11 39h-368zM336 498v228q0 11 2.5 23t10 21.5t20.5 15.5t34 6h188q31 0 51.5 -14.5t20.5 -52.5v-227h-327z" />
    <glyph glyph-name="uniE600" unicode="&#xe600;" 
d="M853 223h-472q-38 0 -67.5 24t-37.5 61l-81 383q-3 12 -13 20t-22 8h-118q-15 0 -25.5 10.5t-10.5 25t10.5 25t25.5 10.5h118q38 0 67.5 -24t37.5 -60l81 -383q3 -12 13 -20t22 -8h472q13 0 22.5 7.5t12.5 19.5l58 252q3 17 -7.5 30.5t-27.5 13.5h-390q-15 0 -25 10.5
t-10 25t10 25t25 10.5h390q51 0 83.5 -40.5t20.5 -90.5l-57 -251q-9 -37 -38 -60.5t-67 -23.5zM421 44zM349 44q0 30 21 50.5t50.5 20.5t50.5 -20.5t21 -50.5t-21 -50.5t-50.5 -20.5t-50.5 20.5t-21 50.5zM803 44zM732 44q0 30 20.5 50.5t50.5 20.5t50.5 -20.5t20.5 -50.5
t-20.5 -50.5t-50.5 -20.5t-50.5 20.5t-20.5 50.5z" />
    <glyph glyph-name="uniE601" unicode="&#xe601;" 
d="M416 -109q-8 0 -15 3q-24 10 -24 36v288q0 19 15 31t34 7l402 -96l84 600l-755 -437l136 -35q16 -4 24 -18t4 -29.5t-18 -24t-29 -4.5l-229 59q-25 7 -29 33t19 39l907 525q22 12 42 -1.5t17 -37.5l-101 -722q-3 -17 -17 -27t-31 -6l-396 95v-149l80 75q12 11 28 10.5
t27 -12t10.5 -28t-12.5 -27.5l-146 -137q-11 -10 -27 -10zM416 179q-14 0 -26 10q-12 11 -13 27t10 29l209 232q10 12 26.5 13t28.5 -9.5t13 -27t-10 -28.5l-208 -233q-12 -13 -30 -13z" />
    <glyph glyph-name="uniE602" unicode="&#xe602;" 
d="M512 -74l-19 10q-13 8 -32.5 19t-67.5 43.5t-92 67t-96 85t-89 101t-62.5 113.5t-25.5 123q0 94 42.5 173t115.5 125t158 46q92 0 168 -52q77 52 168 52q85 0 158 -46t115.5 -125t42.5 -173q0 -60 -25 -123t-62.5 -113.5t-89.5 -101t-96 -85t-92 -67t-67.5 -44
t-32.5 -18.5zM344 752q-97 0 -166 -77.5t-69 -186.5q0 -44 18 -91.5t46.5 -87.5t68 -81t76.5 -72t78.5 -61t67 -46.5t48.5 -29.5q24 14 49 30t66.5 46t78.5 61t76.5 72t68 81t46.5 87.5t18 91.5q0 109 -69 186.5t-166 77.5q-79 0 -142 -53l-26 -22l-26 22q-63 53 -142 53z
" />
    <glyph glyph-name="uniE603" unicode="&#xe603;" 
d="M382 244h-221v187h128q14 0 24.5 10t10.5 24.5t-10.5 25t-24.5 10.5h-163q-14 0 -24.5 -10.5t-10.5 -24.5v-257q0 -14 10.5 -24.5t24.5 -10.5h256q14 0 24.5 10.5t10.5 24.5t-10.5 24.5t-24.5 10.5zM871 214q61 42 95.5 107t34.5 139q0 123 -87.5 210.5t-211 87.5
t-211 -87.5t-87.5 -210.5q0 -105 66.5 -187.5t169.5 -104.5h7q12 0 22 7.5t12 19.5q3 14 -5 26.5t-22 15.5q-78 16 -129 79.5t-51 143.5q0 94 67 161t161.5 67t161.5 -67t67 -161q0 -63 -32 -117t-87 -84q-1 0 -2 -1q-1 0 -2 -0.5t-1 -1.5q-13 -7 -16.5 -21t3.5 -26
l142 -246q10 -18 30 -18q9 0 17 5q13 7 16.5 21t-3.5 27z" />
    <glyph glyph-name="uniE604" unicode="&#xe604;" 
d="M825.5 501q-14.5 0 -25 -10t-10.5 -25v-433h-559v433q0 15 -10 25t-24.5 10t-25 -10t-10.5 -25v-467q0 -15 10.5 -25t24.5 -10h629q15 0 25 10t10 25v467q0 15 -10 25t-24.5 10zM615.5 58q14.5 0 24.5 10.5t10 24.5v279q0 15 -10 25t-24 10h-211q-14 0 -24 -10t-10 -25
v-279q0 -14 10 -24.5t24.5 -10.5t24.5 10.5t10 24.5v244h141v-244q0 -14 10 -24.5t24.5 -10.5zM895 827h-1h-2h-760h-1h-1h-1h-1q-15 0 -25 -10t-10 -25v-106q0 -54 38 -92t93 -38q56 0 95 42q39 -42 96 -42t96 42q39 -42 96 -42t96 42q39 -42 96 -42q54 0 92.5 38t38.5 92
v106q0 15 -10.5 25t-24.5 10zM223.5 625q-25.5 0 -43 18t-17.5 43v71h122v-71q0 -25 -18 -43t-43.5 -18zM415.5 625q-25.5 0 -43.5 18t-18 43v71h122v-71q0 -25 -17.5 -43t-43 -18zM607 625q-25 0 -43 18t-18 43v71h122v-71q0 -25 -18 -43t-43 -18zM799 625q-25 0 -43 18
t-18 43v71h122v-71q0 -25 -18 -43t-43 -18z" />
    <glyph glyph-name="uniE605" unicode="&#xe605;" 
d="M512 891q-105 0 -179 -70.5t-74 -170.5v-265v-51h455v-214q0 -80 -59 -136.5t-143 -56.5t-143 49.5t-59 119.5v137h151v51h-151h-51v-44v-144q0 -90 74 -153.5t179 -63.5t179 70.5t74 170.5v217v48h-51h-404v265q0 80 59 136.5t143 56.5t143 -49.5t59 -119.5v-137h-151
v-51h151h51v44v144q0 90 -74 153.5t-179 63.5z" />
    <glyph glyph-name="uniE606" unicode="&#xe606;" 
d="M855.5 56q-10.5 0 -18 -7.5t-7.5 -17.5v-101h-658v910h658v-354q0 -10 7.5 -17.5t18 -7.5t18 7.5t7.5 17.5v380q0 10 -7.5 17.5t-18.5 7.5h-708q-11 0 -18 -7.5t-7 -17.5v-962q0 -10 7 -17.5t18 -7.5h708q11 0 18.5 7.5t7.5 17.5v127q0 10 -7.5 17.5t-18 7.5zM813 229
q42 50 42 114q0 74 -52 125.5t-125 51.5t-125 -51.5t-52 -125t52 -125.5t125 -52q53 0 97 30l119 -119l36 36zM678 217q-52 0 -89 37t-37 89.5t37 89.5t89 37t89.5 -37t37.5 -89.5t-37.5 -89.5t-89.5 -37z" />
    <glyph glyph-name="uniE607" unicode="&#xe607;" 
d="M849 824h-674q-15 0 -25 -10t-10 -24.5t10 -24.5t25 -10h639v-640v-13v-22q0 -20 -14 -34.5t-34 -14.5t-34.5 14.5t-14.5 34.5v35v1q0 2 -0.5 4t-0.5 4v1v1h-1q-1 2 -1 4q-1 1 -2 2.5t-2 3.5l-2 2q-1 1 -2 3q-2 1 -3 2t-3 2l-3 1q-1 1 -3 1.5t-3 0.5q-2 1 -3 1h-4v1h-2
l-1 -1h-4q-2 0 -4 -1h-1l-445 -140q-9 0 -11 2q-7 7 -6 25v4v634q0 15 -10 25t-24.5 10t-25 -10t-10.5 -25v-633q-3 -50 27 -79q22 -23 58 -23q6 0 12 1q4 0 7 1l405 127q4 -44 37.5 -75t79.5 -31q49 0 83.5 35t34.5 84v22v13v675q0 14 -10 24t-25 10zM258 484.5
q0 -14.5 10 -24.5t24 -10h440q14 0 24.5 10t10.5 24.5t-10.5 25t-24.5 10.5h-440q-14 0 -24 -10.5t-10 -25zM733 405h-440q-14 0 -24.5 -10.5t-10.5 -25t10.5 -24.5t24.5 -10h440q14 0 24.5 10t10.5 24.5t-10.5 25t-24.5 10.5zM293 288q-14 0 -24.5 -10t-10.5 -24.5
t10.5 -25t24.5 -10.5h254q15 0 25 10.5t10 25t-10 24.5t-25 10h-254zM731.5 288q-14.5 0 -24.5 -10t-10 -24.5t10 -25t25 -10.5h2q14 0 24 10.5t10 24.5t-11 24.5t-25.5 10.5zM733 568q14 0 24 10t10 24.5t-10 25t-24 10.5h-231q-15 0 -25 -10.5t-10 -25t10 -24.5t25 -10
h231z" />
    <glyph glyph-name="uniE608" unicode="&#xe608;" 
d="M512 80q-15 0 -25 10l-474 474q-10 10 -10 25t10 25t24.5 10t24.5 -10l450 -450l450 450q10 10 24.5 10t24.5 -10t10 -25t-10 -25l-474 -474q-10 -10 -25 -10z" />
    <glyph glyph-name="uniE609" unicode="&#xe609;" 
d="M846 756h-673q-43 0 -73.5 -30.5t-30.5 -73.5v-568q0 -30 16 -53.5t44 -33.5q16 -6 33 -6q41 0 68 31l106 117q10 11 9.5 25.5t-11.5 24t-25 9t-24 -11.5l-107 -117q-10 -12 -25 -6.5t-15 20.5v569q0 15 10 25t25 10h673q14 0 24 -10t10 -25v-418q0 -14 -10 -24t-24 -10
h-361q-15 0 -25 -10t-10 -24.5t10 -25t25 -10.5h361q43 0 73.5 30.5t30.5 73.5v418q0 43 -30.5 73.5t-73.5 30.5zM522 442zM464 442q0 24 17 41t41 17t41 -17t17 -41t-17 -41t-41 -17t-41 17t-17 41zM754 442zM696 442q0 24 17 41t41 17t41 -17t17 -41t-17 -41t-41 -17
t-41 17t-17 41zM288 442zM230 442q0 24 17 41t41 17t41 -17t17 -41t-17 -41t-41 -17t-41 17t-17 41z" />
    <glyph glyph-name="uniE60A" unicode="&#xe60a;" 
d="M1001 646q-4 14 -17.5 17.5t-23.5 -6.5l-162 -162l-178 177l163 164q10 10 5.5 24t-18.5 17q-37 8 -77.5 9.5t-83 -4t-83 -24t-70.5 -48.5q-53 -53 -70.5 -127t-6.5 -145l-366 -366q-7 -7 -7 -17.5t8 -17.5l248 -249q8 -7 18 -7.5t17 6.5l366 366q150 -42 271 79
q62 62 79.5 145t-12.5 169zM899 368q-107 -107 -238 -64q-14 4 -24 -6l-359 -358l-213 213l358 357q8 9 6 21q-12 63 2 130t61 114q39 39 98.5 53.5t123.5 8.5l-146 -146q-7 -7 -6.5 -17t7.5 -17l213 -213q7 -8 17.5 -8t17.5 7l149 149q12 -63 -5.5 -121.5t-61.5 -102.5z
M521 502l107 -106l18 18l-107 106z" />
    <glyph glyph-name="uniE60B" unicode="&#xe60b;" 
d="M379 467q0 55 38.5 94t93.5 39q54 0 92.5 -38.5t38.5 -92.5q0 -55 -44 -94.5t-100 -35.5q-6 0 -9.5 -3t-3.5 -8v-117h50v88q59 8 104.5 58t45.5 112q0 71 -51.5 121.5t-123 50.5t-122 -51t-50.5 -123h41zM514.5 181q-10.5 0 -18 -7.5t-7.5 -17.5t7.5 -17.5t18 -7.5
t18 7.5t7.5 17.5t-7.5 17.5t-18 7.5zM653 865q-70 19 -140.5 19t-132.5 -18t-119 -50.5t-100.5 -78t-78 -101t-50.5 -119t-18 -132t18 -140.5q34 -125 126.5 -217.5t217.5 -126.5q70 -19 140.5 -18.5t132.5 18.5t119 50.5t100.5 78t78 100.5t50.5 118.5t18.5 132.5
t-18.5 141q-34 125 -126.5 217.5t-217.5 125.5zM640 -51q-64 -17 -127.5 -16.5t-119 16.5t-107 45t-90.5 70t-70 91t-45.5 107.5t-16.5 119t17 126.5q30 112 113 195.5t196 113.5q63 17 126.5 17t119 -16.5t107 -45.5t91 -70t70 -91t45.5 -107t16.5 -119t-17.5 -127
q-30 -112 -113 -195t-195 -114z" />
    <glyph glyph-name="uniE60C" unicode="&#xe60c;" 
d="M980 579.5q-30 37.5 -79 37.5h-402q-14 0 -24 -10t-10 -24.5t10 -24.5t24 -10h402q15 0 24.5 -11.5t5.5 -27.5l-52 -264q-2 -11 -10.5 -17.5t-19.5 -6.5h-422q-11 0 -19.5 6.5t-10.5 16.5l-76 413q-7 34 -35 56.5t-63 22.5h-97q-15 0 -25 -10t-10 -24.5t10 -25t25 -10.5
h97q10 0 18.5 -6.5t11.5 -16.5l75 -412q8 -35 35.5 -57.5t63.5 -22.5h422q36 0 63 22t36 57l51 265q11 47 -19 84.5zM862 13zM793 12.5q0 28.5 20 49t48.5 20.5t49 -20.5t20.5 -49t-20.5 -48.5t-49 -20t-48.5 20t-20 48.5zM418 13zM349 12.5q0 28.5 20 49t49 20.5t49 -20.5
t20 -49t-20 -48.5t-49 -20t-49 20t-20 48.5z" />
    <glyph glyph-name="uniE60D" unicode="&#xe60d;" 
d="M847 633q-88 87 -204 114t-228 -13q-128 -46 -203.5 -156.5t-72.5 -244.5l-61 46q-11 9 -25.5 7.5t-23.5 -13t-7 -26t13 -23.5l123 -95q10 -7 22 -7h2h2q13 0 23 8l108 96q11 9 12 23.5t-8.5 25.5t-24 12t-25.5 -9l-60 -53q-5 115 58 209.5t172 133.5q92 34 189 11
t171 -96q73 -72 97 -167.5t-8 -188.5q-29 -85 -97.5 -144t-161.5 -78.5t-179.5 6t-147.5 91.5q-10 10 -24.5 10.5t-25 -9t-11 -24t9.5 -25.5q58 -62 135.5 -95t163.5 -33q47 0 93 10q111 24 193.5 95t117.5 174q39 111 10 226t-117 202zM522.5 569q-14.5 0 -24.5 -10
t-10 -24v-233q0 -14 10 -24.5t25 -10.5h232q14 0 24.5 10.5t10.5 25t-10.5 24.5t-24.5 10h-197v198q0 14 -10.5 24t-25 10z" />
    <glyph glyph-name="uniE60E" unicode="&#xe60e;" 
d="M511.5 890q-102.5 0 -196 -40t-161 -107.5t-107.5 -161t-40 -196t40 -196.5t107.5 -161.5t161 -107.5t196 -40t196 40t161.5 107.5t108 161.5t40 196.5t-40 196t-108 161t-161.5 107.5t-196 40zM511.5 -69.5q-92.5 -0.5 -176.5 36t-145 97t-97 145t-36 176.5t36 176.5
t97 145.5t145 97t176.5 36t176.5 -36t145 -97t97 -145.5t36 -176.5t-36 -176.5t-97 -145t-145 -96.5t-176.5 -36.5zM537 437v307h-51v-309q-16 -8 -26 -23t-10 -34q0 -26 19 -44.5t45 -18.5q28 0 49 23h253v51h-240q-6 36 -39 48z" />
    <glyph glyph-name="uniE60F" unicode="&#xe60f;" 
d="M1014 835l-48 48l-452 -452l-452 452l-48 -48l452 -452l-452 -452l48 -48l452 452l452 -452l48 48l-452 452z" />
    <glyph glyph-name="uniE610" unicode="&#xe610;" horiz-adv-x="1035" 
d="M908 859h-794q-46 0 -78.5 -32.5t-32.5 -78.5v-513q0 -46 32.5 -78.5t78.5 -32.5h237v-55q0 -16 10.5 -26.5t25.5 -10.5t26 10.5t11 26.5v79q0 3 -1 6q1 4 1 7q0 15 -10.5 25.5t-26.5 10.5h-273q-16 0 -27 11t-11 27v513q0 16 11 27t27 11h794q16 0 27 -11t11 -27v-513
q0 -16 -11 -27t-27 -11h-273q-16 0 -26.5 -10.5t-10.5 -25.5q0 -3 1 -6q-1 -4 -1 -7v-79q0 -16 10.5 -26.5t26 -10.5t26 10.5t10.5 26.5v55h237q46 0 78.5 32.5t32.5 78.5v513q0 46 -32.5 78.5t-78.5 32.5zM880 -15h-738q-15 0 -25.5 -10.5t-10.5 -25.5t10.5 -26t25.5 -11
h738q15 0 25.5 11t10.5 26t-10.5 25.5t-25.5 10.5zM646 279.5q0 15.5 -10.5 26t-25.5 10.5h-198q-15 0 -25.5 -10.5t-10.5 -26t10.5 -26t25.5 -10.5h198q15 0 25.5 10.5t10.5 26z" />
    <glyph glyph-name="uniE611" unicode="&#xe611;" 
d="M768 622q-40 75 -111.5 118.5t-153.5 43.5q-97 0 -176 -56.5t-109 -147.5q-91 -26 -151 -108t-60 -182q0 -80 39 -149.5t105.5 -110.5t143.5 -41q9 0 16 7t7 16.5t-7 16t-16 6.5q-99 0 -170.5 75.5t-71.5 179.5q0 88 54 159t135 89l13 3l4 13q22 82 90.5 133t153.5 51
q72 0 134 -39.5t95 -106.5l5 -11l12 -2q96 -15 160 -91.5t64 -175.5q0 -112 -78.5 -194.5t-186.5 -82.5q-10 0 -16.5 -6.5t-6.5 -16t6.5 -16.5t16.5 -7q83 0 154.5 44t114 118.5t42.5 160.5q0 113 -71.5 201t-179.5 109zM326 212l172 -198q7 -9 19 -9t19 9l172 198l-38 33
l-130 -150v336h-51v-330l-125 144z" />
    <glyph glyph-name="uniE612" unicode="&#xe612;" 
d="M999 246.5q-9 1.5 -13.5 17t-1.5 35.5q1 8 1 37q0 94 -37.5 179.5t-100 147t-149 98.5t-182 37t-182 -37t-149 -98.5t-100 -147t-37.5 -179.5l1 -35q3 -21 -2.5 -36.5t-17 -17.5t-16.5 -18t-1 -36l33 -173q4 -20 21 -32.5t38 -8.5l60 10q20 3 32 20t8 37l-33 173
q-4 21 -14 34t-21 11t-21 11.5t-13 34.5v26q0 112 55.5 206.5t151 149.5t208 55t208 -55t151 -149.5t55.5 -206.5l-1 -28q-3 -20 -14 -33.5t-23.5 -11t-24 -10.5t-15.5 -34l-33 -173q-4 -20 8 -37t32 -20l60 -10q21 -4 38 8.5t21 32.5l33 173q4 20 0 36t-13 17.5zM372 127
l-74 75l-59 -69l-19 17l77 88l67 -68l74 156l88 -142l87 139l83 -139l45 46l77 -80l-18 -17l-59 61l-49 -51l-80 132l-86 -138l-86 136z" />
    <glyph glyph-name="uniE613" unicode="&#xe613;" 
d="M800 892h-560q-21 0 -36 -14.5t-15 -34.5v-922q0 -20 15 -34t36 -14h560q21 0 36 14t15 34v922q0 20 -15 34.5t-36 14.5zM800 -76h-561v458h561v-458zM239 434v407h561v-407h-561zM291 561h50v-103h-50v103zM291 331h50v-152h-50v152z" />
    <glyph glyph-name="uniE614" unicode="&#xe614;" 
d="M945 -19l-240 249q73 93 73 212q0 92 -45.5 171t-124.5 124.5t-171.5 45.5t-171 -45.5t-124 -124.5t-45.5 -171.5t45.5 -171t124 -124t171.5 -45.5q67 0 128 24q13 6 18.5 19t0.5 26.5t-18.5 19.5t-26.5 0q-49 -20 -102 -20q-112 0 -192 80t-80 192t80 191.5t192 79.5
t191.5 -79.5t79.5 -191.5q0 -110 -76 -189q-10 -10 -10 -24t10 -24l263 -273q10 -11 25 -11q14 0 24 10q11 10 11 24.5t-10 25.5z" />
    <glyph glyph-name="uniE615" unicode="&#xe615;" 
d="M679 547q0 54 -39 92.5t-94 38.5t-93.5 -38.5t-38.5 -92.5t38.5 -92.5t93.5 -38.5t94 38.5t39 92.5zM464 547.5q0 33.5 24 57t58 23.5t58 -23.5t24 -57.5t-24 -57.5t-58 -23.5t-58 24t-24 57.5zM652 45l37 43q72 96 122 244t50 237q0 87 -43.5 160.5t-118.5 116.5
t-163.5 43t-163.5 -43t-118.5 -116.5t-43.5 -160.5q0 -89 50 -236.5t121 -243.5l37 -43q-38 -3 -74 -7.5t-79.5 -13.5t-70 -24.5t-26.5 -35.5q0 -24 37.5 -41.5t96 -26.5t115.5 -13t109.5 -4t109.5 4t115.5 13t96.5 26.5t38 41.5q-1 19 -25 34t-64 24t-74.5 14t-70.5 8z
M261 569q0 112 80.5 191.5t194 79.5t194 -79.5t80.5 -191.5q0 -63 -26 -155.5t-65 -176t-89.5 -143t-93.5 -59.5q-46 0 -97 62t-89.5 147.5t-63.5 176t-25 148.5zM526.5 -95q-100.5 0 -180.5 11t-116.5 24.5t-36.5 24.5q0 9 24.5 20t85 22.5t141.5 15.5q46 -37 92 -37
q44 0 90 36q77 -5 133 -16t78.5 -22t22.5 -19q0 -11 -36.5 -24.5t-116.5 -24.5t-180.5 -11z" />
    <glyph glyph-name="uniE616" unicode="&#xe616;" 
d="M745 -83h-465q-41 0 -70.5 29.5t-29.5 71.5v238q0 14 10 24t23.5 10t23.5 -10t10 -24v-238q0 -14 9.5 -24t23.5 -10h465q13 0 23 10t10 24v335h-565q-13 0 -23 9.5t-10 23.5v364q0 42 29.5 71.5t70.5 29.5h465q41 0 70.5 -29.5t29.5 -71.5v-231q0 -13 -10 -23t-23.5 -10
t-23.5 10t-10 23v231q0 14 -10 24t-23 10h-465q-14 0 -23.5 -10t-9.5 -24v-331h564q14 0 24 -9.5t10 -23.5v-368q0 -42 -29.5 -71.5t-70.5 -29.5zM348.5 487q-13.5 0 -23.5 10t-10 24v89q0 14 10 23.5t23.5 9.5t23.5 -9.5t10 -23.5v-89q0 -14 -10 -24t-23.5 -10zM348.5 131
q-13.5 0 -23.5 9.5t-10 23.5v89q0 14 10 24t23.5 10t23.5 -10t10 -24v-89q0 -14 -10 -23.5t-23.5 -9.5z" />
    <glyph glyph-name="uniE617" unicode="&#xe617;" 
d="M1007 424l-491 462q-3 3 -7 0l-491 -462q-12 -12 -6 -27t23 -15h161v-492q0 -5 5 -5h218h199h219q5 0 5 5v492h148q17 0 23 15t-6 27zM444 -65v223h149v-223h-149zM797 432q-5 0 -5 -5v-492h-149v267q0 6 -6 6h-237q-6 0 -6 -5v-268h-149v490q0 7 -7 7h-140l414 390
l415 -390h-130zM409 483q-15 -29 -17 -59t7.5 -54.5t29 -44t44 -29t55 -7.5t59.5 17q27 15 41 41q16 29 18 59t-8 55t-29.5 44t-44 29t-55 8t-59.5 -18q-26 -14 -41 -41zM472 479q27 17 56 13.5t45.5 -22.5t22 -45.5t-13.5 -56.5q-6 -10 -17 -16q-27 -17 -56 -13.5t-45.5 22
t-22 45t13.5 56.5q6 10 17 17z" />
    <glyph glyph-name="uniE618" unicode="&#xe618;" 
d="M369 461h300v-51h-300v51zM369 335h300v-50h-300v50zM369 211h300v-52h-300v52zM1011 427l-481 452q-7 7 -17 7t-17 -7l-481 -452q-12 -12 -6 -27t23 -15h162v-475q0 -11 7 -18t18 -7h601q10 0 17 7t7 18v475h150q17 0 23 15t-6 27zM820 436q-10 0 -17.5 -8.5t-7.5 -18.5
v-474h-552v474q0 10 -7 18.5t-17 8.5h-124l418 393l418 -393h-111z" />
    <glyph glyph-name="uniE619" unicode="&#xe619;" 
d="M673 329q-18 0 -30.5 -13t-12.5 -31t12.5 -31t30.5 -13t31 13t13 31t-13 31t-31 13zM673.5 274q-4.5 0 -8 3.5t-3.5 8t3.5 7.5t8 3t7.5 -3t3 -8t-3 -8t-7.5 -3zM353 569q-21 0 -36 -15t-15 -36t15 -36t36 -15t36 15t15 36t-15 36t-36 15zM352.5 505q-5.5 0 -9 4t-3.5 9
t3.5 9t9 4t9 -4t3.5 -9t-3.5 -9t-9 -4zM586 569q-21 0 -36 -15t-15 -36t15 -36t36 -15t36 15t15 36t-15 36t-36 15zM586 505q-5 0 -9 4t-4 9t4 9t9 4t9 -4t4 -9t-4 -9t-9 -4zM848 329q-18 0 -30.5 -13t-12.5 -31t12.5 -31t30.5 -13t31 13t13 31t-13 31t-31 13zM848.5 274
q-4.5 0 -8 3.5t-3.5 8t3.5 7.5t8 3t7.5 -3t3 -8t-3 -8t-7.5 -3zM1009 246q0 75 -54 133t-137 76q-11 116 -112 196.5t-239 80.5q-96 0 -177.5 -40.5t-128.5 -109.5t-47 -151t49 -153l-44 -161l182 48q114 -51 241 -27q33 -49 90.5 -78t125.5 -29q35 0 67 8l142 -53l-19 119
q61 61 61 141zM513 199q-103 -14 -194 31l-11 5l-96 -25l22 82l-10 13q-45 58 -45 126q0 98 84.5 166.5t202.5 68.5q109 0 190.5 -59t95.5 -146h-4h-2q-12 -1 -18 -1q-2 -1 -8 -1q-11 -2 -16 -3q-1 0 -8 -2q-9 -2 -16 -3q-1 -1 -7 -3q-10 -3 -15 -5q-1 0 -8 -3q-8 -4 -14 -6
q-1 -1 -7 -4q-9 -5 -13 -7q-1 -1 -3.5 -2.5t-3.5 -1.5q-8 -5 -12 -8l-6 -5q-9 -7 -12 -9q-1 -1 -5 -6q-8 -7 -10 -9q-2 -1 -3.5 -3.5t-2.5 -2.5q-8 -10 -9 -11l-3 -3l-1 -3q-6 -8 -8 -11q-1 -2 -2.5 -4.5t-1.5 -3.5q-5 -8 -6 -11q-1 -2 -2 -4.5t-2 -3.5q-4 -9 -5 -12
q0 -1 -1 -4.5t-1 -4.5l-4 -11q0 -2 -0.5 -3.5t-1 -4t-0.5 -3.5t-0.5 -4.5t-1.5 -5.5q-2 -18 -2 -19v-1q-1 -1 -1 -2v0h1v-1q0 -7 2 -21q0 -3 0.5 -5.5t1.5 -5.5t1 -4t0.5 -3.5t0.5 -3.5q1 -1 1 -3zM892 143l-14 -12l7 -45l-56 21l-11 -3q-29 -8 -60 -8q-71 0 -124 39t-60 95
v1q-1 7 -1 15q0 62 54.5 106t130.5 44q2 0 6 -1h9q5 0 8 -1q69 -6 115.5 -48.5t46.5 -99.5q0 -60 -51 -103z" />
    <glyph glyph-name="uniE61A" unicode="&#xe61a;" 
d="M257 586h505v-50h-505v50zM257 385h505v-50h-505v50zM753 84q2 16 15 24q101 59 158 153t57 202q0 114 -63 211.5t-171 154t-235.5 56.5t-236 -56.5t-171.5 -154t-63 -211.5q0 -113 61 -209t166 -153t230 -60q11 -16 25.5 -32.5t46.5 -41t70 -43t97 -31.5t125 -13
q18 0 23.5 16.5t-8.5 27.5q-54 42 -84.5 78.5t-36.5 53t-5 28.5zM535 77q-7 13 -22 13q-114 0 -211 50t-153.5 136t-56.5 187t56.5 187t153.5 136t211 50t211.5 -50t153.5 -136t56 -187q0 -95 -50 -177.5t-139 -134.5q-13 -6 -25.5 -22t-14.5 -39q-7 -67 88 -157
q-53 7 -99.5 24t-73 35t-48 39.5t-28 30.5t-9.5 15z" />
    <glyph glyph-name="uniE61B" unicode="&#xe61b;" 
d="M513 884q-102 0 -194.5 -40t-160 -107t-107 -160t-39.5 -194.5t39.5 -194.5t106.5 -160t160 -107t195 -40t194.5 40t160 107t107 160t39.5 194.5t-39.5 194.5t-107 160t-160 107t-194.5 40zM513 -68q-92 0 -175.5 35.5t-144 96t-96 144t-35.5 175t35.5 175t96 144
t144 96.5t175.5 36t175.5 -36t143.5 -96.5t96 -144t36 -175t-36 -175t-96 -144t-143.5 -96t-175.5 -35.5zM446 257l-160 160l-36 -36l196 -195l346 346l-36 36z" />
    <glyph glyph-name="uniE61C" unicode="&#xe61c;" 
d="M814 -125q-23 0 -42 10q-112 50 -230.5 144t-216.5 210q-205 244 -267 461q-3 11 -4 26t9.5 37t31.5 39l97 82q9 7 19 6t17 -9l158 -188q11 -13 3 -28l-65 -125q13 -26 32 -58.5t55 -85t90 -107t114 -95.5l117 14l45 3q13 1 21 -9l166 -199q7 -8 6 -18.5t-9 -17.5
l-77 -65q-33 -27 -70 -27zM796 -70q8 -4 18 -4q19 0 37 15l58 49l-142 169l-30 -1l-125 -16q-9 -1 -17 4q-61 41 -116.5 95.5t-90 99t-64 93t-38.5 67t-14 30.5q-5 11 1 22l63 120l-130 156l-78 -66q-29 -24 -22 -48q60 -207 258 -443q94 -113 208 -203t221 -137z" />
    <glyph glyph-name="uniE61D" unicode="&#xe61d;" 
d="M964 784q-7 8 -18 8q-59 2 -132 9.5t-160.5 28.5t-120.5 50q-7 6 -17.5 6t-17.5 -7q-31 -29 -118 -49.5t-160.5 -28t-134.5 -9.5q-10 0 -17.5 -7.5t-6.5 -17.5q1 -17 3.5 -41t10.5 -85.5t19 -121t30.5 -138t43 -146t59 -135.5t76 -115.5t96 -77.5t117.5 -30
q58 0 110.5 30t92 77.5t75 115.5t60 135.5t45 145.5t33 138t22 121t12.5 85.5t5 40.5q1 10 -7 18zM516 -76q-50 0 -94.5 24t-79 63.5t-65 95.5t-52 114t-40 126t-30 124.5t-21 116t-14 94t-6.5 64.5q60 3 121.5 9.5t149.5 27t131 49.5q45 -29 133 -49.5t149 -27t120 -9.5
q-7 -59 -18 -125t-30 -147.5t-42.5 -156.5t-56 -148t-69.5 -126.5t-85.5 -86t-100.5 -32.5zM491 657v-226h-177v-51h177v-227h50v227h177v51h-177v226h-50z" />
    <glyph glyph-name="uniE61E" unicode="&#xe61e;" horiz-adv-x="1032" 
d="M910 82h-797q-44 0 -75 31.5t-31 74.5v374q0 44 31 75.5t75 31.5h797q44 0 75 -31.5t31 -75.5v-171q0 -15 -10.5 -25.5t-25 -10.5t-25 10.5t-10.5 25.5v171q0 15 -10.5 25t-24.5 10h-797q-15 0 -25 -10t-10 -25v-374q0 -14 10 -24t25 -10h797q14 0 24.5 10t10.5 24v37
h-774q-15 0 -25.5 10.5t-10.5 25.5t10.5 25.5t25.5 10.5h809q15 0 25.5 -10.5t10.5 -25.5v-73q0 -43 -31 -74.5t-75 -31.5zM840 475h-187q-15 0 -25.5 10.5t-10.5 25t10.5 25t25.5 10.5h187q15 0 25.5 -10.5t10.5 -25t-10.5 -25t-25.5 -10.5z" />
    <glyph glyph-name="uniE61F" unicode="&#xe61f;" 
d="M99 -50q-17 0 -33 6q-28 10 -44.5 34t-16.5 53v644q0 43 31 73.5t74 30.5h804q43 0 74 -30.5t31 -73.5v-506q0 -43 -31 -74t-74 -31h-466q-14 0 -24.5 10.5t-10.5 25t10.5 24.5t24.5 10h466q14 0 24.5 10.5t10.5 24.5v506q0 14 -10.5 24.5t-24.5 10.5h-804
q-14 0 -24.5 -10.5t-10.5 -24.5v-644q0 -16 15 -21.5t26 6.5l102 110q9 11 23.5 11.5t25.5 -9.5t11.5 -24.5t-9.5 -24.5l-101 -110q-28 -31 -69 -31zM255 426zM198 426.5q0 23.5 17 40t40 16.5t40 -16.5t17 -40t-17 -40t-40 -16.5t-40 16.5t-17 40zM509 427zM452 427.5
q0 23.5 16.5 40t40 16.5t40.5 -16.5t17 -40t-17 -40t-40.5 -16.5t-40 16.5t-16.5 40zM763 426zM706 426.5q0 23.5 16.5 40t40 16.5t40 -16.5t16.5 -40t-16.5 -40t-40 -16.5t-40 16.5t-16.5 40z" />
    <glyph glyph-name="uniE620" unicode="&#xe620;" 
d="M722 -128h-420q-45 0 -76.5 31.5t-31.5 76.5v792q0 44 31.5 76t76.5 32h420q45 0 76.5 -32t31.5 -76v-497q0 -15 -10.5 -25.5t-25.5 -10.5t-25.5 10.5t-10.5 25.5v497q0 14 -10.5 25t-25.5 11h-420q-15 0 -25.5 -11t-10.5 -25v-792q0 -15 10.5 -25.5t25.5 -10.5h420
q15 0 25.5 10.5t10.5 25.5v132h-420q-15 0 -25.5 10.5t-10.5 25t10.5 25.5t25.5 11h456q15 0 25.5 -11t10.5 -25v-168q0 -45 -31.5 -76.5t-76.5 -31.5zM518 24zM476 24.5q0 17.5 12.5 30t29.5 12.5t29.5 -12.5t12.5 -30t-12.5 -30t-29.5 -12.5t-29.5 12.5t-12.5 30z" />
    <glyph glyph-name="uniE621" unicode="&#xe621;" 
d="M878 643q13 0 22.5 9t9.5 23v50q0 43 -31 74.5t-75 31.5h-583q-44 0 -75 -31.5t-31 -74.5v-167q0 -13 9 -22.5t22 -9.5h700v-178v-95v-207q0 -17 -12 -29.5t-30 -12.5h-583q-18 0 -30.5 12.5t-12.5 29.5v395q0 13 -9 22.5t-22.5 9.5t-22.5 -9.5t-9 -22.5v-395
q0 -43 31 -74.5t75 -31.5h583q44 0 75 31.5t31 74.5v207v95v210q0 13 -9.5 22.5t-22.5 9.5h-700v135q0 17 12.5 29.5t30.5 12.5h583q18 0 30 -12.5t12 -29.5v-50q0 -14 9.5 -23t22.5 -9zM720 262.5q0 85.5 -60.5 146.5t-146 61t-146 -61t-60.5 -146.5t60.5 -146t146 -60.5
t146 60.5t60.5 146zM370 263q0 59 42 101t101 42t101 -42t42 -101t-42 -101t-101 -42t-101 42t-42 101zM620 263q0 44 -31.5 75.5t-75.5 31.5t-75 -31.5t-31 -75.5t31 -75.5t75 -31.5t75.5 31.5t31.5 75.5zM470 263q0 18 12.5 30.5t30.5 12.5t30.5 -12.5t12.5 -30.5
t-12.5 -30.5t-30.5 -12.5t-30.5 12.5t-12.5 30.5z" />
    <glyph glyph-name="uniE622" unicode="&#xe622;" horiz-adv-x="1036" 
d="M513 -61l-19 10q-13 7 -33.5 18.5t-71 44t-96.5 67t-100.5 86.5t-94 104.5t-66.5 118.5t-27 131q0 128 87.5 218.5t211.5 90.5q58 0 112.5 -23t96.5 -66q41 43 95.5 66t113.5 23q123 0 210.5 -90.5t87.5 -218.5q0 -65 -26.5 -131t-66 -118.5t-94.5 -104.5t-101 -86.5
t-96.5 -67t-70.5 -44t-34 -18.5zM304 748q-91 0 -155 -67.5t-64 -161.5q0 -48 20 -98.5t50 -93t72.5 -85t81.5 -74t83 -62t70.5 -46.5t50.5 -30q24 14 50.5 30t70.5 46.5t82.5 62t81 74t72.5 85t50 93t20 98.5q0 94 -64 161.5t-154 67.5q-52 0 -99 -25t-78 -69l-32 -47
l-33 47q-31 44 -77.5 69t-98.5 25z" />
    <glyph glyph-name="uniE623" unicode="&#xe623;" 
d="M813.5 360q-10.5 0 -18 -7t-7.5 -17v-400h-696v898h696v-67q0 -10 7.5 -17t18 -7t18 7t7.5 17v92q0 10 -7 17t-18 7h-747q-10 0 -17 -7t-7 -17v-949q0 -10 7 -17t17 -7h747q11 0 18 7t7 17v426q0 10 -7.5 17t-18 7zM466 210zM466 210l146 14l371 368q7 8 7 17q0 10 -7 17
l-92 92q-7 7 -17.5 7t-17.5 -7l-370 -370zM584 262l-66 -10l9 66l347 347l56 -57z" />
    <glyph glyph-name="uniE624" unicode="&#xe624;" 
d="M535.5 362q91.5 0 156.5 65t65 156.5t-65 156.5t-156.5 65t-156.5 -65t-65 -156.5t65 -156.5t156.5 -65zM535 735q63 0 107.5 -44.5t44.5 -107t-44.5 -107.5t-107.5 -45t-107.5 45t-44.5 107.5t44.5 107t107.5 44.5zM863 74l-24 101q-17 71 -51.5 105.5t-108.5 34.5
q-14 0 -24.5 -10.5t-10.5 -25t10.5 -24.5t24.5 -10q44 0 62 -16.5t30 -69.5l24 -101q6 -28 -8 -45q-19 -26 -65 -26h-373q-46 0 -66 26q-14 17 -7 46l23 100q13 53 30.5 69.5t61.5 16.5q15 0 25 10t10 24.5t-10 25t-25 10.5q-74 0 -108.5 -34.5t-51.5 -105.5l-23 -100
q-15 -61 20 -106q41 -51 121 -51h373q79 0 120 51q35 45 21 105z" />
    <glyph glyph-name="uniE625" unicode="&#xe625;" 
d="M995 410h-457v457h-52v-457h-457v-52h457v-457h52v457h457v52z" />
    <glyph glyph-name="uniE626" unicode="&#xe626;" 
d="M936 241q-6 55 -35 116l-3 7h-1q-1 3 -5 11l-4 8q-3 4 -8 12l-1 2q-7 166 -103 284q-49 60 -113 92.5t-135 32.5t-135 -32.5t-113 -92.5q-37 -46 -66.5 -124t-32.5 -159q-3 -4 -9 -14q-4 -6 -11 -20l-2 -6q-30 -60 -35 -116q-9 -67 22 -96q1 -1 6 -4q25 -19 59 -6
q10 5 21 13q3 -8 7 -14q-11 -7 -22 -17q-28 -28 -28 -59q0 -57 70 -88q44 -20 103.5 -24.5t115.5 8.5q32 7 53 17q22 -11 52 -17q38 -10 83 -10q78 0 135 26q70 34 70 88q0 31 -28 59q-11 11 -22 18v1q5 7 6 10v1q11 -9 23 -14q34 -12 60 8q2 1 4 3q30 28 22 96z
M805.5 240.5q-13.5 -6.5 -18.5 -20.5q-12 -29 -19 -42q-3 -5 -7 -13q-11 -18 -16 -26q-2 -2 -4 -6l-1 -3q-5 -14 1 -27t20 -18q22 -8 36 -20q5 -5 6 -8q0 -9 -30 -23q-44 -20 -106 -20q-39 0 -69 7q-28 6 -49 18q-8 5 -18 5t-19 -5q-18 -11 -49 -18q-32 -7 -69 -7
q-62 0 -106 20q-29 14 -29 23q0 3 6 8q11 12 35 20l9 5q11 7 14 22t-6 27q-12 17 -23 39q-13 25 -20 43q-2 6 -10 15l-2 2q-13 8 -28 5q-14 -3 -21 -14q-7 -10 -14 -17q-5 -5 -9 -8q-1 11 1 27q6 49 28 96q2 4 7 12q4 7 5 9q2 5 8 14l3 5q5 8 5 19q4 148 88 249
q80 98 193 98q109 0 199 -100q84 -102 87 -248q0 -9 5 -19l4 -6l7 -14q3 -4 8 -15l6 -12h1q20 -44 25 -88q2 -16 1 -27q-4 3 -9 9q-4 4 -12 14q-5 8 -18 14t-26.5 -0.5z" />
    <glyph glyph-name="uniE627" unicode="&#xe627;" 
d="M516 428q-96 0 -164 68t-68 163.5t68 163.5t164 68t164 -68t68 -163.5t-68 -163.5t-164 -68zM516 821q-67 0 -114 -47.5t-47 -114t47 -114t114 -47.5t114.5 47.5t47.5 114t-47.5 114t-114.5 47.5zM737 -123h-450q-74 0 -120 58t-28 130l24 125q18 76 78.5 124t138.5 48
q15 0 25 -10t10 -24.5t-10 -25t-25 -10.5q-53 0 -94.5 -32.5t-53.5 -84.5l-25 -125q-9 -40 15.5 -71.5t64.5 -31.5h450q40 0 64.5 31.5t15.5 69.5l-25 128q-12 51 -53.5 83.5t-94.5 32.5q-15 0 -25.5 10.5t-10.5 25t10.5 24.5t25.5 10q77 0 137.5 -47.5t79.5 -123.5l25 -128
q17 -70 -29 -128t-120 -58z" />
    <glyph glyph-name="uniE628" unicode="&#xe628;" 
d="M726 382q-16 3 -20.5 9.5t-1.5 11.5l4 5l3 6q2 4 6 16t4.5 23.5t-4.5 26t-16 26.5q-15 14 -38 18.5t-46 1t-44 -9t-34 -11.5l-14 -6q-10 -3 -16.5 -4t-10.5 0.5t-6 3t-1.5 7.5t1 9.5t2.5 12.5t3 15q0 15 -2 28t-11 28t-23.5 22.5t-41.5 7t-63 -13.5q-35 -12 -72.5 -36.5
t-65 -50.5t-50.5 -50.5t-35 -40.5l-12 -16q-33 -45 -49.5 -89.5t-15.5 -66.5v-23q5 -49 29.5 -88t58 -63.5t79.5 -41.5t87.5 -25t88.5 -11q77 -7 159 11.5t153 63t100 106.5q17 37 17.5 68.5t-11 52t-29.5 36t-33.5 22.5t-28.5 9zM410 61q-111 -5 -189.5 43.5t-78.5 122.5
t78 127t190 58q114 6 191 -37t77 -116q0 -74 -79 -133.5t-189 -64.5zM381 347q-31 -3 -54.5 -14t-37 -24.5t-23 -30.5t-13 -31t-4.5 -29t-0.5 -20t0.5 -8v-5q0 -3 2 -12t5.5 -16.5t12 -17t20.5 -16.5q67 -32 126.5 -19t95.5 59q14 18 18.5 43.5t-2 52t-23 48.5t-49 33.5
t-74.5 6.5zM343 151q-21 -2 -35.5 8.5t-14.5 27.5q0 18 13.5 33.5t34.5 17.5q23 2 37.5 -9.5t14.5 -29.5q0 -17 -14.5 -31t-35.5 -17zM431 226q-7 -5 -14.5 -4.5t-11.5 7.5q-4 6 -2.5 14.5t8.5 13.5q9 6 16.5 5t11 -7.5t1.5 -14.5t-9 -14zM798 443q9 0 16 5.5t8 14.5v3
q14 117 -80 134q-28 6 -54 1q-10 0 -17 -7t-7 -17.5t7 -17.5t17 -7q33 6 51.5 0.5t26 -19.5t9.5 -29t0 -26l-1 -11q0 -10 7 -17t17 -7zM780 728q-52 12 -121 -1q-1 0 -2 -0.5t-2 -0.5l-1 -1q-11 -3 -18.5 -12.5t-7.5 -22.5q0 -14 10.5 -24.5t25.5 -10.5q19 3 32 8
q6 0 18.5 1.5t33.5 -4t42.5 -13.5t44 -27t37.5 -44q28 -62 11 -118q-7 -18 -7 -35q0 -14 10 -23t26 -9q14 0 22.5 6t11.5 24q19 58 14.5 104.5t-20.5 81t-44 60t-56.5 40t-59.5 21.5z" />
    <glyph glyph-name="uniE629" unicode="&#xe629;" 
d="M852 402q13 41 7.5 67t-19.5 39l-13 12q0 73 -38 139t-103 105.5t-140 39.5q-116 0 -197 -80t-84 -203l-1 -1q-3 -3 -5.5 -6t-9.5 -12t-11 -19t-7.5 -23t-3 -29t5.5 -32q-28 -15 -55.5 -59t-37.5 -97.5t14 -100.5q13 -22 45 13q15 17 29 41q12 -40 25.5 -61t40.5 -50
q-28 -6 -46.5 -17t-25.5 -24t-7.5 -26.5t5.5 -24.5t15 -17q42 -30 116 -34q108 -6 170 46h14h15q60 -52 168 -46q74 4 115 30q11 7 18 19.5t3.5 29.5t-21.5 33q-26 22 -59 31q50 52 69 118q28 -58 55 -67q10 -3 16 6q19 40 19.5 78.5t-15 76t-33 64t-33.5 41.5z" />
    <glyph glyph-name="uniE62A" unicode="&#xe62a;" 
d="M723 374q17 57 -8 95q-29 42 -94 42q-41 0 -90 -17q5 54 -25 86q-27 27 -71 27q-50 0 -113.5 -35.5t-123.5 -97.5q-61 -63 -94 -128.5t-33 -124.5q0 -75 54.5 -133.5t137 -87.5t174.5 -29q83 0 158 23.5t125.5 61.5t79.5 85.5t29 94.5q0 46 -28 82.5t-78 55.5zM466 432
q11 -15 32 -15q11 0 25 6q56 24 98 24q31 0 41 -14q10 -16 -4 -52q-8 -22 0 -39t33 -24q11 -4 21.5 -9.5t23.5 -15t21 -24.5t8 -33q0 -32 -23 -67t-64 -65t-104.5 -49.5t-136.5 -19.5q-135 0 -218.5 56.5t-83.5 129.5q0 96 109 209q49 50 102 81.5t89 31.5q17 0 25 -8
q15 -16 1 -64q-7 -23 5 -39zM756 627q-13 0 -22.5 -9.5t-9.5 -22.5t9.5 -22.5t22.5 -9.5q12 0 21 -8.5t9 -20.5q0 -13 9 -22.5t22.5 -9.5t23 9.5t9.5 22.5q0 38 -27.5 65.5t-66.5 27.5zM923.5 700.5q-69.5 69.5 -167.5 69.5q-13 0 -22.5 -9.5t-9.5 -22.5t9.5 -22.5
t22.5 -9.5q72 0 122 -50.5t50 -121.5q0 -14 9.5 -23t23 -9t23 9t9.5 23q0 97 -69.5 166.5z" />
    <glyph glyph-name="uniE62B" unicode="&#xe62b;" 
d="M332 730q-65 -12 -118 -43.5t-86 -74t-48 -93.5t-9 -100.5t36 -97t81 -80.5q9 -6 8.5 -13t-14.5 -46l-15 -45l54 29l54 29l29 -7q51 -13 94 -13h15l-5 20q-15 57 2 113.5t57 99t102 69t131 26.5h26l-6 19q-20 71 -79.5 124.5t-141.5 76t-167 7.5zM309 594
q21 -14 22 -39.5t-19 -38.5q-21 -14 -43.5 -5.5t-29 28.5t6.5 42q9 15 29 19t34 -6zM537 594q17 -11 20.5 -29t-3.5 -32.5t-23 -22t-35 -0.5q-28 11 -30.5 41t23.5 44q11 6 25 5.5t23 -6.5zM640 480q-99 -18 -161 -86t-58 -155q2 -57 34.5 -105.5t83.5 -77.5t115 -39.5
t130 8.5l20 6l44 -24q43 -23 44 -21t-10 37q-11 32 -10.5 37.5t14.5 15.5q51 37 73.5 86t17 97t-33 93.5t-71.5 78t-105 47t-127 2.5zM635 355q9 -6 12.5 -18.5t0.5 -23.5q-8 -22 -33.5 -23.5t-34.5 20.5q-11 25 10.5 42.5t44.5 2.5zM821 351q14 -13 12 -31.5t-18 -26.5
q-25 -12 -44 6.5t-7 42.5q9 15 26.5 18t30.5 -9z" />
    <glyph glyph-name="uniE62C" unicode="&#xe62c;" 
d="M779 417l-395 395q-14 14 -33.5 14t-33 -13.5t-13.5 -33t14 -33.5l362 -362l-362 -362q-14 -14 -14 -33.5t13.5 -33t33 -13.5t32.5 14l396 395q13 14 13 33t-13 33z" />
    <glyph glyph-name="uniE62D" unicode="&#xe62d;" 
d="M323 384l363 362q13 14 13 33.5t-13.5 33t-33 13.5t-32.5 -14l-395 -395q-14 -14 -14 -33t14 -33l395 -395q13 -14 32.5 -14t33 13.5t13.5 33t-13 33.5z" />
    <glyph glyph-name="uniE62E" unicode="&#xe62e;" 
d="M980 -113q-15 0 -25 10l-300 310q-10 10 -9.5 24t9.5 24q96 98 96 236q0 91 -45 168.5t-122.5 122.5t-168.5 45t-168.5 -45t-123 -122.5t-45.5 -169t45.5 -169t123 -122.5t168.5 -45q64 0 124 24q13 5 26.5 -0.5t18.5 -19t-0.5 -26.5t-18.5 -18q-72 -29 -150 -29
q-110 0 -203.5 54.5t-148 148t-54.5 203.5t54.5 203t148 147.5t203.5 54.5t203.5 -54.5t147.5 -147.5t54 -203q0 -147 -93 -259l278 -287q10 -10 9.5 -24.5t-10.5 -24.5q-10 -9 -24 -9z" />
    <glyph glyph-name="uniE62F" unicode="&#xe62f;" 
d="M300 832l456 -447l-456 -446l-35 34l421 412l-421 412z" />
    <glyph glyph-name="uniE630" unicode="&#xe630;" 
d="M273 384l432 431l34 -34l-431 -431zM705 -46l-432 431l35 34l431 -431z" />
    <glyph glyph-name="uniE631" unicode="&#xe631;" 
d="M411.5 -77q-4.5 0 -8.5 3q-8 9 0 17l423 422l-423 423q-8 9 0 17t17 0l431 -431q3 -4 3 -8.5t-3 -8.5l-431 -431q-4 -3 -8.5 -3z" />
    <glyph glyph-name="uniE632" unicode="&#xe632;" 
d="M676 -77q-5 0 -8 3l-431 431q-9 8 0 17l431 431q8 8 16 0t0 -17l-423 -423l423 -422q8 -8 0 -17q-3 -3 -8 -3z" />
    <glyph glyph-name="uniE633" unicode="&#xe633;" 
d="M51 665h77v76h-77v-76zM51 -1h77v77h-77v-77zM51 332h77v77h-77v-77zM205 741v-76h768v76h-768zM205 332h768v77h-768v-77zM205 -1h768v77h-768v-77z" />
    <glyph glyph-name="uniE634" unicode="&#xe634;" 
d="M885.5 708.5q-63.5 63.5 -145 97.5t-171 34t-171 -34t-145 -97.5t-97 -145t-33.5 -170.5q0 -23 2 -46l-58 53q-11 9 -25.5 8.5t-24.5 -11.5t-9.5 -25.5t11.5 -24.5l121 -110q10 -9 24 -9q3 0 6 1h4q16 0 26 12l109 121q10 11 9 25.5t-12 24.5t-25.5 9t-24.5 -12l-59 -66
q-3 25 -3 50q0 102 50 188.5t137 137t189 50.5t188.5 -50.5t137 -137t50.5 -188.5t-50.5 -189t-137 -137t-188.5 -50q-75 0 -143 27.5t-121 79.5q-10 11 -24.5 10.5t-25 -11t-10.5 -25t11 -24.5q63 -62 143.5 -95t169.5 -33t170.5 33.5t145 97t97.5 145t34 171t-34 171
t-97.5 145zM546.5 610q-14.5 0 -25 -10.5t-10.5 -24.5v-214q0 -15 10.5 -25.5t25.5 -10.5h214q14 0 24.5 10.5t10.5 25t-10.5 25t-24.5 10.5h-179v179q0 14 -10.5 24.5t-25 10.5z" />
    <glyph glyph-name="uniE635" unicode="&#xe635;" horiz-adv-x="1033" 
d="M512.5 87q-77.5 0 -155.5 20.5t-139 53.5t-109.5 73.5t-74.5 82t-26 75.5q0 35 25.5 76.5t73.5 81.5t109 73.5t139 53.5t157 20q137 0 258.5 -55t189.5 -132q57 -63 57 -118q0 -34 -26.5 -75.5t-74.5 -82t-109.5 -73.5t-139 -53.5t-155 -20.5zM512 621q-86 0 -168.5 -26
t-137.5 -63.5t-89 -75.5t-34 -64q0 -17 20.5 -44.5t60.5 -59.5t90.5 -60t119 -47t138.5 -19t138.5 19t119 47t90.5 60t60.5 59.5t20.5 44.5q0 26 -37 68q-60 66 -166 113.5t-226 47.5zM512 241q-62 0 -106 44.5t-44 106.5t44 106t106 44t106.5 -44t44.5 -106t-44.5 -106.5
t-106.5 -44.5zM512 466q-31 0 -52.5 -21.5t-21.5 -52.5t21.5 -53t52.5 -22t53 22t22 53t-22 52.5t-53 21.5z" />
    <glyph glyph-name="uniE636" unicode="&#xe636;" horiz-adv-x="1030" 
d="M649.5 398.5q-4.5 13.5 -19.5 15.5l-86 12l-37 78q-6 13 -21.5 13t-21.5 -13l-37 -78l-86 -12q-15 -2 -19.5 -15.5t5.5 -23.5l63 -63l-14 -87q-3 -15 9 -23q6 -4 14 -4q6 0 12 2l74 39l75 -39q6 -2 12 -2q7 0 14 4q12 8 9 23l-14 87l63 63q10 10 5.5 23.5z" />
    <glyph glyph-name="uniE637" unicode="&#xe637;" horiz-adv-x="1036" 
d="M988 689v0q-3 9 -10 14q0 1 -1 1v1h-1l-1 1h-1v1h-1h-1v1h-1v0q-1 1 -2 1t-2 1q-126 48 -254.5 20.5t-225.5 -123.5q-28 -29 -50 -61q-8 5 -15 9q-21 12 -43 21q-90 38 -185.5 26.5t-175.5 -69.5q-6 -4 -10 -11v-1q-4 -6 -4 -13q-12 -114 36.5 -211.5t143.5 -153.5
q87 -50 186 -50q22 0 45 3q75 -27 154 -27q90 0 174 34.5t149 98.5q93 94 119.5 226.5t-23.5 260.5zM840 254q-80 -81 -191 -104.5t-217 17.5h-1q-7 3 -13 3q-5 0 -9 -2q-101 -13 -189 38q-73 42 -111.5 116.5t-33.5 161.5q62 41 134.5 47.5t141.5 -22.5q18 -7 34 -17
q8 -4 15 -9q-37 -75 -44 -159l-40 32q-11 9 -26 7.5t-24.5 -13t-8 -26.5t12.5 -24l99 -81q10 -8 23 -8q9 0 17 4q21 12 19 36q-11 120 50 225q25 43 61 79q77 78 181 102.5t206 -9.5q36 -105 13 -212t-99 -182zM790 521q-11 10 -26 9.5t-25 -12.5l-218 -239
q-10 -11 -9.5 -26t11.5 -25q10 -10 25 -10q16 0 26 12l219 240q10 11 9 26t-12 25z" />
    <glyph glyph-name="uniE638" unicode="&#xe638;" 
d="M506 890q-101 0 -193 -39.5t-158.5 -106t-105.5 -158t-39 -192.5t39 -193t105.5 -158.5t158.5 -105.5t193 -39t192.5 39t158 105.5t106 158.5t39.5 193t-39.5 192.5t-106 158t-158 106t-192.5 39.5zM751 187l-39 -38l-206 206l-207 -206l-39 38l207 207l-207 206l39 39
l207 -206l206 206l39 -39l-206 -206z" />
    <glyph glyph-name="uniE639" unicode="&#xe639;" 
d="M537 626l474 -474q10 -10 10 -24.5t-10 -25t-24.5 -10.5t-24.5 10l-450 450l-450 -450q-10 -10 -24.5 -10t-24.5 10.5t-10 25t10 24.5l474 474q10 11 25 11t25 -11z" />
    <glyph glyph-name="uniE63A" unicode="&#xe63a;" 
d="M496 479q73 0 124.5 51.5t51.5 124.5t-51.5 124t-124.5 51q-72 0 -123.5 -51t-51.5 -124t51.5 -124.5t123.5 -51.5zM496.5 761q43.5 0 75 -31t31.5 -75t-31.5 -75t-75 -31t-74.5 31t-32 75q1 44 32 75t74.5 31zM598 437q-36 0 -66 -16q-13 -7 -17 -21t2.5 -27t21 -17.5
t27.5 2.5q14 7 32 7q35 0 60 -24.5t25 -58.5t-16 -66t-37 -54t-49.5 -42t-47 -29.5t-36.5 -17.5q-18 8 -36.5 17.5t-47.5 29.5t-50 42t-37 54t-16 66t25 58.5t60 24.5q16 0 29 -6q14 -6 27.5 -0.5t19.5 19t1 27.5t-19 20q-27 12 -58 12q-64 0 -110 -45.5t-46 -109.5
q0 -123 126 -215q59 -44 120 -66q6 -2 12 -2t12 2q60 22 120 66q125 92 125 215q0 64 -46 109.5t-110 45.5z" />
    <glyph glyph-name="uniE63B" unicode="&#xe63b;" 
d="M852 680l-50 51l-290 -290l-290 290l-50 -51l289 -290l-289 -290l50 -50l290 289l290 -289l50 50l-289 290z" />
    <glyph glyph-name="uniE63C" unicode="&#xe63c;" 
d="M724 45h-422v506h-72v-513q0 -27 19.5 -46t45.5 -19h435q27 0 46 19t19 46v513h-71v-506zM375 467h72v-422h-72v422zM572 467h71v-422h-71v422zM366 719h295v-47h71v68q0 21 -14.5 36t-35.5 15h-337q-21 0 -36 -15t-15 -36v-68h72v47zM828 672h-632q-15 0 -25.5 -10.5
t-10.5 -25.5t10.5 -25.5t25.5 -10.5h632q15 0 25.5 10.5t10.5 25.5t-10.5 25.5t-25.5 10.5z" />
    <glyph glyph-name="uniE63D" unicode="&#xe63d;" 
d="M817 41h-675q-32 0 -55 23t-23 56v514q0 32 23 55t55 23h738q33 0 56 -23t23 -55v-453q0 -14 -10 -23.5t-24 -9.5t-23.5 9.5t-9.5 23.5v453q0 4 -3.5 7.5t-8.5 3.5h-738q-5 0 -8 -3.5t-3 -7.5v-514q0 -5 3 -8t8 -3h646l-188 167q-7 6 -14 1l-48 -33q-23 -16 -50.5 -13.5
t-47.5 21.5l-148 140q-7 7 -15 0l-67 -58q-11 -9 -25 -8t-23 11.5t-8 24.5t12 23l67 58q23 20 53 19.5t52 -21.5l148 -140q7 -6 14 -1l48 32q23 16 49.5 14t46.5 -20l211 -187q13 -11 17 -28t-2.5 -33.5t-20.5 -26.5t-32 -10zM690.5 421q-37.5 0 -63.5 26t-26 63.5t26 63.5
t63.5 26t63.5 -26t26 -63.5t-26 -63.5t-63.5 -26zM690.5 533q-9.5 0 -16 -6.5t-6.5 -16t6.5 -16t16 -6.5t16 6.5t6.5 16t-6.5 16t-16 6.5z" />
    <glyph glyph-name="uniE63E" unicode="&#xe63e;" 
d="M777 544h-450v83q0 78 55.5 133t133.5 55q79 0 134 -55.5t55 -133.5q0 -17 12 -28.5t29 -11.5q16 0 28 11.5t12 28.5q0 112 -78.5 191t-190.5 79h-1q-111 0 -190 -78q-80 -79 -80 -191v-84q-36 -3 -61 -30t-25 -64v-429q0 -61 43.5 -104.5t104.5 -43.5h415
q62 0 105.5 43.5t43.5 104.5v429q0 39 -28 67t-67 28zM791 20q0 -27 -20 -47t-48 -20h-415q-27 0 -47 20t-20 47v429q0 6 4 10t9 4h523q6 0 10 -4t4 -10v-429zM586 250h-140q-17 0 -29 -12t-12 -28.5t12 -28.5t29 -12h140q17 0 28.5 12t11.5 28.5t-11.5 28.5t-28.5 12z" />
    <glyph glyph-name="uniE63F" unicode="&#xe63f;" 
d="M514 115q80 0 148 45t108 122t40 168q0 97 -46.5 180t-123.5 124q-8 5 -17.5 2t-14 -11.5t-1.5 -17.5t11 -13q66 -36 105.5 -107.5t39.5 -156.5q0 -119 -73 -204t-176 -85t-176.5 85t-73.5 204q0 87 41 159.5t110 106.5q8 5 11 14t-1.5 17.5t-13.5 11.5t-17 -1
q-80 -41 -128 -124.5t-48 -183.5q0 -91 39.5 -168t108 -122t148.5 -45zM522 394q33 0 54.5 26t21.5 64q0 33 -17.5 57t-50.5 30v178q0 1 1.5 5.5t6 12.5t9.5 16q26 37 100 37q10 0 17 7t7 16.5t-6.5 16t-15.5 6.5q-54 0 -89.5 -16.5t-51.5 -39.5q-9 -13 -15.5 -27.5
t-9 -22.5t-2.5 -11v-181q-18 -11 -32 -34t-14 -50q0 -37 26.5 -63.5t60.5 -26.5zM522 528q14 0 24.5 -13t10.5 -31t-10.5 -31t-24.5 -13t-24.5 13t-10.5 31t10.5 31t24.5 13zM668 79l-155 -136l-160 136q-7 6 -16.5 5t-16 -8t-5.5 -16.5t8 -15.5l176 -149q6 -5 15 -5t15 5
l169 149q7 6 8 15.5t-5.5 17t-16 8t-16.5 -5.5z" />
    <glyph glyph-name="uniE640" unicode="&#xe640;" 
d="M512 106q-75 0 -150 20t-134 52t-106 71t-72 79t-25 73q0 34 24.5 74.5t71 79t105.5 70.5t134.5 51.5t151.5 19.5q132 0 249.5 -53.5t183.5 -127.5q54 -61 54 -114q0 -33 -25 -73t-72 -79t-106 -71t-134 -52t-150 -20zM512 623q-83 0 -163 -25.5t-133 -61.5t-85.5 -73
t-32.5 -62q0 -16 19.5 -43t58 -57.5t87.5 -58t115.5 -45.5t133.5 -18t133.5 18t115.5 45.5t87.5 58t58 57.5t19.5 43q0 25 -36 66q-57 64 -159.5 110t-218.5 46zM512 256q-60 0 -102.5 42.5t-42.5 102.5t42.5 102.5t102.5 42.5t102.5 -42.5t42.5 -102.5t-42.5 -102.5
t-102.5 -42.5zM512 473q-30 0 -51 -21t-21 -51t21 -51t51 -21t51 21t21 51t-21 51t-51 21z" />
    <glyph glyph-name="uniE641" unicode="&#xe641;" 
d="M960 339q0 12 -8.5 21t-21.5 9h-46q-14 0 -27 9.5t-17 23.5l-24 58q-7 12 -4.5 28t12.5 26l33 33q8 9 8 21.5t-8 20.5l-56 55q-8 9 -20.5 9t-21.5 -9l-33 -32q-10 -10 -26 -12.5t-28 4.5l-58 24q-14 4 -23.5 17t-9.5 27v46q0 13 -9 21.5t-21 8.5h-78q-12 0 -21 -8.5
t-9 -21.5v-46q0 -14 -9.5 -27t-23.5 -17l-58 -24q-12 -7 -28 -4.5t-26 12.5l-33 32q-9 9 -21.5 9t-20.5 -9l-55 -55q-9 -8 -9 -20.5t9 -21.5l32 -33q10 -10 12.5 -26t-4.5 -28l-24 -58q-4 -14 -17 -23.5t-27 -9.5h-46q-13 0 -21.5 -9t-8.5 -21v-78q0 -12 8.5 -21t21.5 -9h46
q14 0 27 -9.5t17 -23.5l24 -58q7 -12 4.5 -28t-12.5 -26l-33 -33q-8 -9 -8 -21.5t8 -20.5l56 -56q8 -8 20.5 -8t21.5 8l33 33q10 10 26 12.5t28 -4.5l58 -24q14 -4 23.5 -17t9.5 -27v-46q0 -13 9 -21.5t21 -8.5h78q12 0 21 8.5t9 21.5v46q0 14 9.5 27t23.5 17l58 24
q12 7 28 4.5t27 -12.5l32 -32q9 -9 21.5 -9t20.5 8l56 56q8 8 8 20.5t-8 21.5l-33 33q-10 10 -12.5 26t4.5 28l24 58q4 14 17 23.5t27 9.5h46q13 0 21.5 9t8.5 21v78zM685 300q0 -71 -50.5 -121.5t-122 -50.5t-122 50.5t-50.5 121.5t50.5 121.5t122 50.5t122 -50.5
t50.5 -121.5z" />
    <glyph glyph-name="uniE642" unicode="&#xe642;" 
d="M357 327h-28q-6 0 -10 4t-4 9v78q0 5 4 9t10 4h28q6 0 10 -4t4 -9v-78q0 -5 -4 -9t-10 -4zM357 172h-28q-6 0 -10 4t-4 9v78q0 5 4 8.5t10 3.5h28q6 0 10 -3.5t4 -8.5v-78q0 -5 -4 -9t-10 -4zM902 183q-38 15 -61 47t-23 71.5t23 71.5t61 47v88q0 11 -8.5 18.5t-19.5 7.5
h-503v-39q0 -5 -4 -9t-10 -4h-28q-6 0 -10 4t-4 9v39h-168q-11 0 -19 -7.5t-8 -18.5v-88q37 -16 60.5 -48t23.5 -71t-23.5 -71t-60.5 -47v-88q0 -11 8 -18.5t19 -7.5h168v39q0 5 4 9t10 4h28q6 0 10 -4t4 -9v-39h503q11 0 19.5 7.5t8.5 18.5v88zM902 17h-545h-28h-209
q-23 0 -39.5 15t-16.5 37v52v51v52q35 0 59 22.5t24 55t-24 55t-59 22.5v52v51v52q0 21 16.5 36.5t39.5 15.5h209h28h545q22 0 38.5 -15.5t16.5 -36.5v-77v-26v-52q-34 0 -58.5 -22.5t-24.5 -55t24.5 -55t58.5 -22.5v-52v-77v-26q0 -22 -16.5 -37t-38.5 -15z" />
    <glyph glyph-name="uniE643" unicode="&#xe643;" 
d="M527 608h342q46 0 67.5 -20.5t20.5 -66.5v-209v-210q-1 -58 -26.5 -82.5t-85.5 -24.5q-355 -1 -655 0q-59 0 -92 33t-34 91v376q0 61 26 86.5t89 26.5h348zM518 49h328q32 -1 45 11t12 44q-1 59 -1 157v157q0 4 1 13.5t1 15t-3.5 12t-11.5 9.5q-7 1 -11 2t-10 -2.5
t-8.5 -6t-8.5 -7.5t-9 -8q-12 -10 -123 -97t-168 -134q-23 -20 -41 -20t-41 20q-54 45 -155.5 125.5t-139.5 111.5q-1 1 -6.5 5.5t-6.5 5t-6.5 4.5t-7 3.5t-7 1.5t-8.5 -1q-7 -2 -10.5 -7.5t-3.5 -10t0.5 -13t0.5 -11.5q0 -34 0.5 -150t-1.5 -150q0 -42 19 -61t60 -19h321z
M140 549q32 -29 32 -30q159 -126 183 -144q31 -24 44 -34t35.5 -24.5t30 -19.5t26 -10t24.5 -4.5t24 5t25.5 10t29.5 20t35 25t43 34.5q16 12 211 172h-743z" />
    <glyph glyph-name="uniE644" unicode="&#xe644;" 
d="M512 256q-53 0 -90.5 37.5t-37.5 90.5t37.5 90.5t90.5 37.5t90.5 -37.5t37.5 -90.5t-37.5 -90.5t-90.5 -37.5zM512 456q-30 0 -51 -21t-21 -51t21 -51t51 -21t51 21t21 51t-21 51t-51 21zM846.5 256q-53.5 0 -91 37.5t-37.5 90.5t37.5 90.5t91 37.5t91 -37.5t37.5 -90.5
t-37.5 -90.5t-91 -37.5zM846.5 456q-29.5 0 -51 -21t-21.5 -51t21.5 -51t51 -21t51 21t21.5 51t-21.5 51t-51 21zM177.5 256q-53.5 0 -91 37.5t-37.5 90.5t37.5 90.5t91 37.5t91 -37.5t37.5 -90.5t-37.5 -90.5t-91 -37.5zM177.5 456q-29.5 0 -51 -21t-21.5 -51t21.5 -51
t51 -21t51 21t21.5 51t-21.5 51t-51 21z" />
    <glyph glyph-name="uniE645" unicode="&#xe645;" 
d="M464.5 411.5q10.5 10.5 11.5 36.5t-7 58.5t-29.5 71t-52 69t-68.5 52t-70.5 30t-58.5 7.5t-37 -12t-12.5 -37.5t7 -59t30 -70.5t52 -68.5t69 -52t71 -29.5t58.5 -7t36.5 11.5zM794.5 488.5q30.5 30.5 52 68.5t30 70.5t7.5 59t-12 37.5t-37 12t-59 -7.5t-71 -30t-68.5 -52
t-52 -69t-29.5 -71t-7 -58.5t11.5 -36.5t36.5 -11.5t59 7t71 29.5t68.5 52zM456 334h-316q-19 0 -32.5 -13.5t-13.5 -32.5v-89v-45h46h439l-314 -39q-15 -2 -23.5 -14.5t-5.5 -27.5l33 -202q2 -13 12.5 -22t24.5 -9h393q14 0 24.5 9t12.5 23l39 282h86q19 0 32.5 13.5
t13.5 31.5v135h-451z" />
    <glyph glyph-name="uniE646" unicode="&#xe646;" 
d="M317 -51l-159 157l-100 -267zM828 450l-164 169l-476 -469l170 -177zM963 579q10 11 10 29.5t-5 31.5l-5 12q-43 48 -93 85q-23 16 -45 16t-33 -8l-11 -8l-84 -85l171 -171q73 73 95 98z" />
    <glyph glyph-name="uniE647" unicode="&#xe647;" 
d="M698 229q-32 20 -46.5 35t-15.5 32t11.5 30.5t29.5 18.5q14 4 22.5 21.5t3.5 35.5q-6 26 27 59q16 15 19 68q3 39 -27 59q-10 7 -14.5 20t-1.5 21q4 8 6 45q0 18 -9 63q-6 31 -62.5 62.5t-128.5 31.5t-128.5 -31.5t-62.5 -62.5q-9 -45 -9 -63q2 -37 6 -45q3 -8 -1.5 -21
t-14.5 -20q-30 -20 -27 -59q3 -53 19 -68q33 -33 27 -59q-5 -18 3.5 -35.5t22.5 -21.5q17 -5 29.5 -18.5t11.5 -30.5t-15.5 -32t-46.5 -35q-42 -27 -213 -127v-165h323q4 4 9 13t13 41.5t8 69.5q1 3 2.5 6.5t13.5 9.5t30 6t29.5 -5.5t14.5 -10.5l2 -6q0 -37 7.5 -68
t14.5 -44l8 -12h323v165q-172 101 -213 127zM529 137h-34q-12 0 -20.5 8t-8.5 20t8.5 20.5t20.5 8.5h34q12 0 20.5 -8.5t8.5 -20.5t-8.5 -20t-20.5 -8z" />
    <glyph glyph-name="uniE648" unicode="&#xe648;" 
d="M228 335v-162l284 -154l284 154v162l-284 -154zM512 749l-447 -243l447 -244l365 199v-280h82v325z" />
    <glyph glyph-name="uniE649" unicode="&#xe649;" 
d="M827 536q-41 92 -126 148t-188 56t-188 -56t-126 -147q-55 -7 -92.5 -46t-37.5 -90q0 -52 36.5 -90.5t91.5 -46.5q44 -114 134 -180q-7 -15 -7 -31q0 -32 22.5 -54.5t54.5 -22.5t54.5 22.5t22.5 54t-22.5 54t-54.5 22.5q-26 0 -47 -16q-95 68 -133 192v189
q31 92 111.5 151t180.5 59q97 0 175 -54.5t112 -142.5v-245q63 0 107.5 40.5t44.5 98.5q0 50 -35.5 88.5t-89.5 46.5zM647 403q-67 0 -122 35.5t-83 94.5q-23 -48 -65 -81.5t-94 -44.5l-1 -1v-3q0 -95 67 -161.5t161.5 -66.5t161 66.5t66.5 161.5q0 3 -0.5 9.5t-1.5 8.5
q-42 -18 -89 -18z" />
    <glyph glyph-name="uniE64A" unicode="&#xe64a;" horiz-adv-x="1033" 
d="M967 408q-40 43 -106 50v59q-1 39 -11.5 81t-37 89.5t-64 84.5t-99.5 61t-138.5 24t-138 -24t-99.5 -61t-63.5 -85t-36 -90t-12.5 -82v-56q-65 -15 -109.5 -62.5t-44.5 -127.5q0 -45 15 -80.5t41 -58t55.5 -36t62.5 -18.5h7q20 0 36 13q18 16 18 41v178q0 17 -11.5 29
t-28.5 12t-29 -12t-12 -29v-145q-73 25 -73 106q0 31 11 53.5t28.5 34.5t33.5 17.5t34 8.5q20 2 33.5 17.5t13.5 35.5v78q0 7 1.5 18t7.5 38t16.5 52t31 54.5t47.5 50.5t70 35.5t95 14.5t95 -14.5t70 -35.5t48 -50.5t31 -54t16.5 -51.5t7.5 -38t1 -18v-385v-2l1 -1
q0 -31 -21.5 -52.5t-52.5 -21.5h-107q-7 18 -22.5 30t-35.5 12h-60q-25 0 -43 -18t-18 -43.5t18 -43.5t43 -18h60h1h1h2h1h160q51 0 91.5 30t55.5 77q77 16 119.5 65t42.5 123q1 13 0 29.5t-13 51.5t-36 60zM936 270q0 -82 -75 -106v213q30 -6 47 -24q29 -30 28 -83z" />
    <glyph glyph-name="uniE64B" unicode="&#xe64b;" 
d="M511 12q-27 0 -45 20l-383 404q-15 15 -17 36.5t9 39.5l132 214q18 30 53 30h501q35 0 53 -30l132 -215q11 -19 9 -40t-17 -36l-381 -403q-19 -20 -46 -20zM147 481l364 -385l363 384l-121 199h-485zM642 450h-269q-16 0 -27.5 11.5t-11.5 27.5t11.5 27t27.5 11h269
q16 0 27 -11t11 -27t-11 -27.5t-27 -11.5z" />
    <glyph glyph-name="uniE64C" unicode="&#xe64c;" 
d="M926 444q14 0 24.5 10.5t10.5 25.5v126q0 34 -24.5 58.5t-58.5 24.5h-356q-15 0 -25.5 -10.5t-10.5 -25.5t10.5 -25t25.5 -10h356q5 0 8.5 -3.5t3.5 -8.5v-95q-52 -12 -85.5 -54t-33.5 -96t33.5 -96t85.5 -54v-95q0 -5 -3.5 -8.5t-8.5 -3.5h-728q-5 0 -8.5 3.5t-3.5 8.5
v490q0 5 3.5 8.5t8.5 3.5h220v-441q0 -15 10 -25t25 -10t25.5 10t10.5 25v452q0 25 -17.5 42.5t-42.5 17.5h-231q-34 0 -58.5 -24.5t-24.5 -58.5v-490q0 -34 24.5 -58.5t58.5 -24.5h728q34 0 58.5 24.5t24.5 58.5v126q0 15 -10.5 25.5t-24.5 10.5q-35 0 -59.5 24t-24.5 58.5
t24.5 59t59.5 24.5z" />
    <glyph glyph-name="uniE64D" unicode="&#xe64d;" 
d="M826 -105h-608q-24 0 -41 17t-17 40v755q0 24 16.5 41t40.5 17h154l8 43q3 20 19 33.5t37 13.5h161q21 0 37 -13t20 -33l8 -44h146q24 0 40.5 -17t16.5 -41v-616q0 -14 -10 -24t-24 -10t-24 10t-10 24v605h-145q-20 0 -36 13t-20 34l-8 44h-142l-8 -44
q-4 -20 -19.5 -33.5t-36.5 -13.5h-153l1 -732h597q15 0 25 -10t10 -24.5t-10 -24.5t-25 -10zM421 605h182v-68h-182v68zM318 467h388v-68h-388v68zM318 331h388v-69h-388v69zM318 193h388v-68h-388v68z" />
    <glyph glyph-name="uniE64E" unicode="&#xe64e;" 
d="M713 18q-76 0 -118 69h-213q-42 -64 -115 -64q-34 0 -62.5 17.5t-45.5 49.5h-45q-20 0 -33.5 14t-13.5 33v205q0 18 11 31l137 150q13 15 35 15h41v94q0 19 13.5 32.5t33.5 13.5h90q15 0 25 -10t10 -24.5t-10 -25t-25 -10.5h-67v-93q0 -20 -13.5 -33.5t-33.5 -13.5h-54
l-123 -135v-172h37q31 0 43 -29q16 -39 50 -39q40 0 60 39q13 25 42 25h241q29 0 42 -27q20 -42 61 -42q35 0 56 41q12 26 42 26h77v133q0 15 10 25t24.5 10t25 -10t10.5 -25v-156q0 -20 -13.5 -33.5t-33.5 -13.5h-87q-42 -67 -111 -67zM724.5 298q-96.5 0 -165 68.5
t-68.5 165.5t68.5 165.5t165 68.5t165 -68.5t68.5 -165.5t-68.5 -165.5t-165 -68.5zM724.5 695q-67.5 0 -115.5 -47.5t-48 -115t48 -115.5t115.5 -48t115.5 48t48 115.5t-48 115t-115.5 47.5zM804 464h-70q-19 0 -32 13t-13 32v102q0 15 10.5 25t25 10t25 -10t10.5 -25v-76
h44q15 0 25 -10.5t10 -25t-10 -25t-25 -10.5z" />
    <glyph glyph-name="uniE64F" unicode="&#xe64f;" 
d="M558 827q-104 0 -194.5 -48.5t-147.5 -132.5t-69 -186l-58 58q-12 12 -28.5 12t-28 -12t-11.5 -28.5t12 -27.5l114 -115q16 -15 38 -15t37 15l115 115q11 11 11 27.5t-11.5 28.5t-28 12t-28.5 -12l-51 -52q19 121 112.5 201t216.5 80q91 0 168 -44.5t121.5 -121.5
t44.5 -167.5t-44.5 -167.5t-121.5 -121.5t-168 -44.5q-79 0 -149 34.5t-118 98.5q-10 13 -26 15.5t-29.5 -7.5t-15.5 -26.5t8 -29.5q59 -79 145.5 -122t184.5 -43q113 0 208 55.5t150.5 150.5t55.5 207.5t-55.5 207.5t-150.5 150.5t-208 55.5zM430 464.5q0 -16.5 12 -28.5
t28 -12h67v-25h-31q-17 0 -28.5 -11.5t-11.5 -28t11.5 -28t28.5 -11.5h31v-83q0 -17 12 -28.5t28.5 -11.5t28 11.5t11.5 28.5v83h31q17 0 28.5 11.5t11.5 28t-11.5 28t-28.5 11.5h-31v25h67q17 0 28.5 12t11.5 28.5t-11.5 28t-28.5 11.5h-36l52 54q11 12 10.5 28.5t-12.5 28
t-28.5 11t-27.5 -12.5l-65 -68l-64 68q-12 12 -28.5 12.5t-28.5 -11t-12 -28t11 -28.5l51 -54h-36q-16 0 -28 -11.5t-12 -28z" />
    <glyph glyph-name="uniE650" unicode="&#xe650;" 
d="M950 602v0q-1 1 -1 2v0v2l-1 1q0 1 -0.5 2t-0.5 1.5t-1 1.5q0 1 -1 2v1l-2 2l-2 2h-1v1l-2 2q-11 8 -24 7h-1h-2q-1 0 -2 -1h-1h-2q0 -1 -1 -1t-2 -0.5t-1.5 -1t-1.5 -0.5t-1.5 -0.5t-0.5 -1.5q-1 0 -2 -1q-1 0 -1 -1q-1 0 -2 -1v-1l-94 -94q-9 -9 -22.5 -9t-22.5 9
l-101 102q-9 9 -9 22t9 22l94 94h1q1 1 1 2l1 1q1 1 1 2q1 0 1 1t0.5 1.5l1.5 1.5v1q1 1 1 2v1q1 1 1 2v1v0q1 2 1 3v1v2v1v2v2v2v1l-1 1v2q0 1 -1 2v1q0 1 -1 2v1q-1 1 -1 2l-1 1l-1 1q-1 1 -1 2l-1 1l-1 1l-1 1v0l-1 1q-1 1 -2 1.5t-2 0.5v2h-2q-1 1 -2 1l-1 1h-2
q0 1 -1 1h-2v1h-1h-1v0q-75 17 -148 -3.5t-127 -75.5q-46 -46 -68.5 -108.5t-16.5 -127.5l-275 -275q-29 -29 -29 -70t29 -70l125 -125q29 -28 70 -28t69 28l58 58q10 10 10 24t-10 24t-23.5 10t-23.5 -10l-58 -58q-9 -9 -22 -9t-22 9l-125 125q-9 9 -9 22t9 22l287 287v0
l2 1q0 1 0.5 2t1 1.5t0.5 1.5q1 0 1 1q1 1 1 2l1 1q0 1 0.5 1.5t0.5 1.5t0.5 1.5t0.5 1.5v2v1v2q0 1 0.5 2t0 1.5t-0.5 1.5v2v1q-8 53 8.5 105t55.5 91q61 61 146 66l-44 -44q-28 -28 -28 -69t28 -70l102 -101q29 -29 69.5 -29t69.5 29l44 43q-5 -85 -66 -146
q-39 -38 -91 -55t-105 -9h-1q-1 1 -2 1h-2h-1h-2q-1 0 -2 -1h-1h-2h-1q-1 -1 -3 -1q-1 -1 -3 -1q-1 -1 -3 -2l-2 -2q-2 -1 -3 -2t-2 -1l-144 -145q-10 -10 -10 -24t10 -23.5t24 -9.5t24 10l133 133q14 -2 28 -2q58 0 112.5 22.5t95.5 63.5q55 55 75.5 127.5t3.5 147.5z
M608 385q14 0 23.5 10t9.5 24t-9 24l-62 61q-9 10 -23 10t-24 -10t-10 -24t10 -24l61 -61q10 -10 24 -10z" />
    <glyph glyph-name="uniE651" unicode="&#xe651;" 
d="M512 0q-9 0 -17 4q-12 6 -30 16t-62.5 38.5t-85.5 59.5t-89 77t-83 92.5t-58.5 105t-23.5 115.5q0 113 77.5 193.5t187.5 80.5q111 0 184 -76q74 76 184 76t187.5 -80.5t77.5 -193.5q0 -57 -23.5 -115.5t-58.5 -105t-83 -92.5t-88.5 -77t-85.5 -59.5t-63 -38.5t-30 -16
q-8 -4 -17 -4zM328 707q-79 0 -134.5 -58.5t-55.5 -140.5q0 -58 32.5 -119.5t76 -107.5t102 -91.5t94.5 -68.5t69 -41q33 18 69 41t94.5 68.5t102 91.5t76 107.5t32.5 119.5q0 82 -55.5 140.5t-134.5 58.5q-96 0 -153 -81q-11 -15 -31 -15t-31 15q-57 81 -153 81z" />
    <glyph glyph-name="uniE652" unicode="&#xe652;" 
d="M842 713q-56 56 -128.5 86t-151.5 30t-151.5 -30t-128.5 -86t-85.5 -128t-29.5 -151q0 -20 2 -41l-52 47q-10 9 -23 8t-21.5 -10.5t-8 -22.5t10.5 -22l107 -97q9 -8 21 -8q3 0 6 1h1h2q14 0 23 10l96 108q9 9 8.5 22t-10.5 22t-23 8t-21 -10l-53 -59q-3 22 -3 44
q0 90 45 166.5t121.5 121t166.5 44.5t167 -44.5t121.5 -121t44.5 -166.5t-44.5 -167t-121.5 -121.5t-167 -44.5q-136 0 -233 95q-9 9 -22 9t-22 -9t-9 -22t9 -23q56 -54 127.5 -83.5t149.5 -29.5q79 0 151.5 30t128.5 86t86 128.5t30 151.5t-30 151t-86 128zM542 626
q-13 0 -22.5 -9t-9.5 -22v-190q0 -13 9.5 -22t22.5 -9h189q13 0 22.5 9t9.5 22t-9.5 22.5t-22.5 9.5h-158v158q0 13 -9 22t-22 9z" />
    <glyph glyph-name="uniE653" unicode="&#xe653;" 
d="M513 2q-27 0 -46 19l-384 424q-15 16 -17 37.5t9 39.5l132 215q19 30 54 30h503q35 0 53 -30l133 -216q11 -19 8.5 -40t-16.5 -37l-383 -423q-19 -19 -46 -19zM147 491l366 -405l365 403l-123 200h-486zM644 439h-270q-16 0 -27.5 11.5t-11.5 27.5t11.5 27.5t27.5 11.5
h270q16 0 27.5 -11.5t11.5 -27.5t-11.5 -27.5t-27.5 -11.5z" />
    <glyph glyph-name="uniE654" unicode="&#xe654;" 
d="M641 175q15 0 26 11t11 26.5t-11 26t-26 10.5h-257q-15 0 -26 -10.5t-11 -26t11 -26.5t26 -11h257zM958 492q-2 16 -9 32l-77 175q-14 31 -42.5 49.5t-61.5 18.5h-514q-33 0 -61.5 -18.5t-42.5 -48.5l-74 -169q-14 -32 -9 -64q10 -60 54 -96t108 -36q60 0 115 39
q22 16 44 1q61 -40 123 -40q63 0 123 42q21 14 43 0q43 -28 99 -40q10 -2 21 -2v-261h-569v170q0 15 -11 26t-26.5 11t-26 -11t-10.5 -26v-182q0 -25 18 -43.5t43 -18.5h594q26 0 44 18.5t18 43.5v285q35 13 57 38q37 42 30 107zM812 410q-6 -1 -12 -1q-4 0 -9 1
q-42 9 -74 29q-29 19 -63 18.5t-62 -19.5q-41 -29 -81 -29t-82 28q-27 19 -61 19q-37 0 -67 -22q-35 -25 -72 -25q-25 0 -42.5 7.5t-27 20t-13.5 22.5t-6 21q-2 10 3 21l75 168q11 24 36 24h514q26 0 36 -24l77 -175q3 -6 3 -10q4 -32 -12 -51q-10 -11 -29 -17z" />
    <glyph glyph-name="uniE655" unicode="&#xe655;" 
d="M483 362zM290 572q19 0 31.5 13t12.5 33v43v0v43q0 19 -12 32q-20 21 -48 10.5t-28 -40.5v-45v-42q0 -20 12.5 -33.5t31.5 -13.5zM737.5 571q18.5 0 31 13.5t12.5 32.5v43v0v43q0 20 -11 32q-21 22 -49 11t-28 -41v-45v-42q0 -20 13 -33.5t31.5 -13.5zM544 243h118v-87
h-118v87zM723 362h117v-87h-117v87zM723 243h117v-87h-117v87zM365 124h118v-88h-118v88zM544 124h117v-87h-117v87zM723 124h117v-87h-117v87zM186 124h118v-88h-118v88zM187 243h117v-88h-117v88zM544 362h117v-87h-117v87zM365 243h118v-87h-118v87zM365 362h118v-87
h-118v87zM942 661h-110v-15q-1 -40 -26 -68t-63 -31h-7q-4 0 -8 1q-37 3 -62 31.5t-25 67.5v7v7h-258v-15q0 -42 -27.5 -70.5t-67.5 -28.5t-68 29t-28 71v8v6h-110q-8 0 -13 -5t-5 -12v-739q0 -7 5 -12t13 -5h860q8 0 13 5t5 12v739q0 7 -5 12t-13 5zM907 -54h-787v24v28
v430h787v-430v-52z" />
  </font>
</defs>
</svg>
